<?xml version="1.0" encoding="UTF-8"?>
<svg width="16px" height="16px" viewBox="0 0 16 16" version="1.1" xmlns="http://www.w3.org/2000/svg" xmlns:xlink="http://www.w3.org/1999/xlink">
    <!-- Generator: Sketch 51.2 (57519) - http://www.bohemiancoding.com/sketch -->
    <title>cabinet-16px</title>
    <desc>Created with Sketch.</desc>
    <defs></defs>
    <g id="cabinet-16px" stroke="none" stroke-width="1" fill="none" fill-rule="evenodd">
        <path d="M8.5,4 L6.5,4 C6.224,4 6,4.2235 6,4.5 C6,4.7765 6.224,5 6.5,5 L8.5,5 C8.776,5 9,4.7765 9,4.5 C9,4.2235 8.776,4 8.5,4 Z M13,7 L2,7 L2,3 C2,2.448 2.448,2 3,2 L12,2 C12.552,2 13,2.448 13,3 L13,7 Z M13,12 C13,12.552 12.552,13 12,13 L3,13 C2.448,13 2,12.552 2,12 L2,8 L13,8 L13,12 Z M3,1 C1.8955,1 1,1.8955 1,3 L1,12 C1,13.1045 1.8955,14 3,14 L12,14 C13.1045,14 14,13.1045 14,12 L14,3 C14,1.8955 13.1045,1 12,1 L3,1 Z M6.5,11 L8.5,11 C8.776,11 9,10.776 9,10.5 C9,10.2235 8.776,10 8.5,10 L6.5,10 C6.224,10 6,10.2235 6,10.5 C6,10.776 6.224,11 6.5,11 Z" id="Fill-1" fill="#000000"></path>
    </g>
</svg>