<?xml version="1.0" encoding="UTF-8"?>
<svg width="16px" height="16px" viewBox="0 0 16 16" version="1.1" xmlns="http://www.w3.org/2000/svg" xmlns:xlink="http://www.w3.org/1999/xlink">
    <!-- Generator: Sketch 51.2 (57519) - http://www.bohemiancoding.com/sketch -->
    <title>contact-16px</title>
    <desc>Created with Sketch.</desc>
    <defs></defs>
    <g id="contact-16px" stroke="none" stroke-width="1" fill="none" fill-rule="evenodd">
        <path d="M9.73242188,1.75 L3.85742188,1.75 L3.85742188,3.51367188 L4.28125,3.51367188 C4.39974018,3.51367188 4.49999959,3.55696571 4.58203125,3.64355469 C4.66406291,3.73014366 4.70507812,3.8326817 4.70507812,3.95117188 C4.70507812,4.06966205 4.66406291,4.16992146 4.58203125,4.25195312 C4.49999959,4.33398479 4.39974018,4.375 4.28125,4.375 L3.85742188,4.375 L3.85742188,6.13867188 L4.32226562,6.13867188 C4.4407558,6.13867188 4.54101521,6.17968709 4.62304688,6.26171875 C4.70507854,6.34375041 4.74609375,6.44400982 4.74609375,6.5625 C4.74609375,6.68099018 4.70507854,6.78124959 4.62304688,6.86328125 C4.54101521,6.94531291 4.4407558,6.98632812 4.32226562,6.98632812 L3.85742188,6.98632812 L3.85742188,8.76367188 L4.30859375,8.76367188 C4.42708393,8.76367188 4.52962196,8.80468709 4.61621094,8.88671875 C4.70279991,8.96875041 4.74609375,9.06900982 4.74609375,9.1875 C4.74609375,9.30599018 4.70279991,9.40852821 4.61621094,9.49511719 C4.52962196,9.58170616 4.42708393,9.625 4.30859375,9.625 L3.85742188,9.625 L3.85742188,11.375 L4.30859375,11.375 C4.42708393,11.375 4.52962196,11.4160152 4.61621094,11.4980469 C4.70279991,11.5800785 4.74609375,11.6803379 4.74609375,11.7988281 C4.74609375,11.9173183 4.70279991,12.0198563 4.61621094,12.1064453 C4.52962196,12.1930343 4.42708393,12.2363281 4.30859375,12.2363281 L3.85742188,12.2363281 L3.85742188,14 L9.73242188,14 L12.6074219,14 C12.7259121,14 12.8284501,13.9567062 12.9150391,13.8701172 C13.001628,13.7835282 13.0449219,13.6809902 13.0449219,13.5625 L13.0449219,2.1875 C13.0449219,2.06900982 13.001628,1.96647179 12.9150391,1.87988281 C12.8284501,1.79329384 12.7259121,1.75 12.6074219,1.75 L9.73242188,1.75 Z M12.6074219,0.875 C12.972007,0.875 13.2818998,1.00260289 13.5371094,1.2578125 C13.792319,1.51302211 13.9199219,1.82291484 13.9199219,2.1875 L13.9199219,13.5625 C13.9199219,13.9270852 13.792319,14.2369779 13.5371094,14.4921875 C13.2818998,14.7473971 12.972007,14.875 12.6074219,14.875 L3.87109375,14.875 C3.70703043,14.875 3.51790472,14.820313 3.30371094,14.7109375 C3.08951716,14.601562 2.98242188,14.3645852 2.98242188,14 L2.98242188,12.2363281 L2.53125,12.2363281 C2.42187445,12.2363281 2.32389366,12.1930343 2.23730469,12.1064453 C2.15071571,12.0198563 2.10742188,11.9173183 2.10742188,11.7988281 C2.10742188,11.6803379 2.15071571,11.5800785 2.23730469,11.4980469 C2.32389366,11.4160152 2.42187445,11.375 2.53125,11.375 L2.98242188,11.375 L2.98242188,9.625 L2.53125,9.625 C2.42187445,9.625 2.32389366,9.58170616 2.23730469,9.49511719 C2.15071571,9.40852821 2.10742188,9.30599018 2.10742188,9.1875 C2.10742188,9.06900982 2.15071571,8.96875041 2.23730469,8.88671875 C2.32389366,8.80468709 2.42187445,8.76367188 2.53125,8.76367188 L2.98242188,8.76367188 L2.98242188,6.98632812 L2.54492188,6.98632812 C2.4264317,6.98632812 2.32617229,6.94531291 2.24414062,6.86328125 C2.16210896,6.78124959 2.12109375,6.68099018 2.12109375,6.5625 C2.12109375,6.44400982 2.16210896,6.34375041 2.24414062,6.26171875 C2.32617229,6.17968709 2.4264317,6.13867188 2.54492188,6.13867188 L2.98242188,6.13867188 L2.98242188,4.375 L2.50390625,4.375 C2.38541607,4.375 2.28515666,4.33398479 2.203125,4.25195312 C2.12109334,4.16992146 2.08007812,4.06966205 2.08007812,3.95117188 C2.08007812,3.8326817 2.12109334,3.73014366 2.203125,3.64355469 C2.28515666,3.55696571 2.38541607,3.51367188 2.50390625,3.51367188 L2.98242188,3.51367188 L2.98242188,1.77734375 C2.98242188,1.55859266 3.05533781,1.35351658 3.20117188,1.16210938 C3.34700594,0.970702168 3.57486824,0.875 3.88476562,0.875 L12.6074219,0.875 Z" id="Combined-Shape" fill="#000000"></path>
        <path d="M8.49988955,4.5 C7.6715264,4.5 7,5.17135493 7,6 C7,6.82842415 7.6715264,7.5 8.49988955,7.5 C9.32825271,7.5 10,6.82842415 10,6 C10,5.17135493 9.32825271,4.5 8.49988955,4.5" id="Fill-7-Copy" stroke="#000000"></path>
        <path d="M6,11.5 C6,10.1189249 7.11921066,9 8.49981592,9 C9.88042118,9 11,10.1189249 11,11.5" id="Combined-Shape" stroke="#000000"></path>
    </g>
</svg>