<?xml version="1.0" encoding="UTF-8"?>
<svg width="16px" height="16px" viewBox="0 0 16 16" version="1.1" xmlns="http://www.w3.org/2000/svg" xmlns:xlink="http://www.w3.org/1999/xlink">
    <!-- Generator: Sketch 51.2 (57519) - http://www.bohemiancoding.com/sketch -->
    <title>doc-16px</title>
    <desc>Created with Sketch.</desc>
    <defs></defs>
    <g id="doc-16px" stroke="none" stroke-width="1" fill="none" fill-rule="evenodd">
        <path d="M8.65625,0.875 L13.03125,5.25 L13.03125,14 C13.03125,14.246095 12.9469409,14.4534497 12.7783203,14.6220703 C12.6096997,14.7906909 12.402345,14.875 12.15625,14.875 L3.84375,14.875 C3.59765502,14.875 3.39030032,14.7906909 3.22167969,14.6220703 C3.05305905,14.4534497 2.96875,14.246095 2.96875,14 L2.96875,1.75 C2.96875,1.50390502 3.05305905,1.29655032 3.22167969,1.12792969 C3.39030032,0.959309053 3.59765502,0.875 3.84375,0.875 L8.65625,0.875 Z M12.15625,5.61914062 L8.30078125,1.75 L8.21875,1.75 L8.21875,5.6875 L12.15625,5.6875 L12.15625,5.61914062 Z M3.84375,14 L12.15625,14 L12.15625,6.5625 L7.34375,6.5625 L7.34375,1.75 L3.84375,1.75 L3.84375,14 Z" id="Doc---simple-line-icons" fill="#000000"></path>
    </g>
</svg>