<?xml version="1.0" encoding="UTF-8"?>
<svg width="16px" height="16px" viewBox="0 0 16 16" version="1.1" xmlns="http://www.w3.org/2000/svg" xmlns:xlink="http://www.w3.org/1999/xlink">
    <!-- Generator: Sketch 51.2 (57519) - http://www.bohemiancoding.com/sketch -->
    <title>my-16px</title>
    <desc>Created with Sketch.</desc>
    <defs></defs>
    <g id="my-16px" stroke="none" stroke-width="1" fill="none" fill-rule="evenodd">
        <path d="M8,1.75 C7.62630021,1.75 7.25716328,1.82063731 6.89257812,1.96191406 C6.52799297,2.10319081 6.19987125,2.28320203 5.90820312,2.50195312 C5.616535,2.72070422 5.38183683,2.95768102 5.20410156,3.21289062 C5.0263663,3.46810023 4.9375,3.70963428 4.9375,3.9375 L4.9375,6.125 C4.9375,6.55338756 5.04459528,7.10025709 5.25878906,7.765625 C5.47298284,8.43099291 5.80794043,8.94596172 6.26367188,9.31054688 C6.38216205,9.40169316 6.47102835,9.51790294 6.53027344,9.65917969 C6.58951853,9.80045644 6.61002613,9.94856693 6.59179688,10.1035156 C6.56445299,10.2493497 6.50748741,10.3837884 6.42089844,10.5068359 C6.33430946,10.6298834 6.22265693,10.723307 6.0859375,10.7871094 L2.24414062,12.6054688 C2.18945285,12.623698 2.11425829,12.6669918 2.01855469,12.7353516 C1.92285108,12.8037113 1.875,12.9290355 1.875,13.1113281 L1.875,14 L14.1113281,13.9863281 L14.1113281,13.1386719 C14.1113281,12.9016915 14.0543625,12.753581 13.9404297,12.6943359 C13.8264968,12.6350908 13.764974,12.6054688 13.7558594,12.6054688 L9.94140625,10.8007812 C9.80468682,10.7369788 9.69075566,10.6435553 9.59960938,10.5205078 C9.50846309,10.3974603 9.45377613,10.2584643 9.43554688,10.1035156 C9.41731762,9.94856693 9.43782522,9.80045644 9.49707031,9.65917969 C9.5563154,9.51790294 9.6451817,9.40169316 9.76367188,9.31054688 C10.2376326,8.94596172 10.5725902,8.42871429 10.7685547,7.75878906 C10.9645192,7.08886384 11.0625,6.54427293 11.0625,6.125 L11.0625,3.9375 C11.0625,3.70051965 10.9713551,3.45442836 10.7890625,3.19921875 C10.6067699,2.94400914 10.3720717,2.70931097 10.0849609,2.49511719 C9.79785013,2.28092341 9.46972841,2.10319081 9.10058594,1.96191406 C8.73144347,1.82063731 8.36458516,1.75 8,1.75 Z M8,0.875 C8.48307533,0.875 8.95930755,0.966144922 9.42871094,1.1484375 C9.89811433,1.33073008 10.317381,1.56770687 10.6865234,1.859375 C11.0556659,2.15104313 11.3564442,2.47916484 11.5888672,2.84375 C11.8212902,3.20833516 11.9375,3.57291484 11.9375,3.9375 L11.9375,6.125 C11.9375,6.38932424 11.9101565,6.69465973 11.8554688,7.04101562 C11.800781,7.38737152 11.7096361,7.7405581 11.5820312,8.10058594 C11.4544264,8.46061378 11.2858083,8.80696448 11.0761719,9.13964844 C10.8665354,9.47233239 10.6113296,9.75716027 10.3105469,9.99414062 L14.125,11.8125 C14.125,11.8125 14.2685533,11.8922518 14.5556641,12.0517578 C14.8427749,12.2112638 14.9863281,12.4186185 14.9863281,12.6738281 L14.9863281,14 C14.9863281,14.2369804 14.9020191,14.4397778 14.7333984,14.6083984 C14.5647778,14.7770191 14.3619804,14.8613281 14.125,14.8613281 L1.875,14.8613281 C1.62890502,14.8613281 1.42155032,14.7770191 1.25292969,14.6083984 C1.08430905,14.4397778 1,14.2369804 1,14 L1,12.6738281 C1,12.4368478 1.14583188,12.2340503 1.4375,12.0654297 C1.72916812,11.8968091 1.875,11.8125 1.875,11.8125 L5.71679688,9.99414062 C5.40689949,9.74804564 5.14713646,9.45182465 4.9375,9.10546875 C4.72786354,8.75911285 4.55696681,8.40592628 4.42480469,8.04589844 C4.29264257,7.6858706 4.19921902,7.33496265 4.14453125,6.99316406 C4.08984348,6.65136548 4.0625,6.36198035 4.0625,6.125 L4.0625,3.9375 C4.0625,3.57291484 4.17643115,3.20833516 4.40429688,2.84375 C4.6321626,2.47916484 4.93066222,2.15104313 5.29980469,1.859375 C5.66894716,1.56770687 6.09049242,1.33073008 6.56445312,1.1484375 C7.03841383,0.966144922 7.51692467,0.875 8,0.875 Z" id="User---simple-line-icons" fill="#000000"></path>
    </g>
</svg>