<?xml version="1.0" encoding="UTF-8"?>
<svg width="16px" height="16px" viewBox="0 0 16 16" version="1.1" xmlns="http://www.w3.org/2000/svg" xmlns:xlink="http://www.w3.org/1999/xlink">
    <!-- Generator: Sketch 51.2 (57519) - http://www.bohemiancoding.com/sketch -->
    <title>photo-16px</title>
    <desc>Created with Sketch.</desc>
    <defs></defs>
    <g id="photo-16px" stroke="none" stroke-width="1" fill="none" fill-rule="evenodd">
        <path d="M14.125,1.96875 C14.3619804,1.96875 14.5670564,2.05533768 14.7402344,2.22851562 C14.9134123,2.40169357 15,2.60676965 15,2.84375 L15,12.90625 C15,13.1432304 14.9134123,13.3483064 14.7402344,13.5214844 C14.5670564,13.6946623 14.3619804,13.78125 14.125,13.78125 L1.875,13.78125 C1.63801965,13.78125 1.43294357,13.6946623 1.25976562,13.5214844 C1.08658768,13.3483064 1,13.1432304 1,12.90625 L1,2.84375 C1,2.60676965 1.08658768,2.40169357 1.25976562,2.22851562 C1.43294357,2.05533768 1.63801965,1.96875 1.875,1.96875 L14.125,1.96875 Z M14.125,12.90625 L14.125,12.0996094 L14.1044922,12.0791016 C14.0999349,12.0745442 14.093099,12.0722656 14.0839844,12.0722656 L11.2128906,9.10546875 L9.61328125,10.5546875 C9.51302033,10.6276045 9.40592505,10.6663411 9.29199219,10.6708984 C9.17805933,10.6754558 9.08463578,10.6321619 9.01171875,10.5410156 L5.38867188,6.93164062 L1.875,10.3359375 L1.875,12.90625 L14.125,12.90625 Z M14.125,10.8554688 L14.125,2.84375 L1.875,2.84375 L1.875,9.10546875 L5.07421875,6.00195312 C5.11979189,5.95637998 5.1699216,5.92447926 5.22460938,5.90625 C5.27929715,5.88802074 5.33854135,5.87890625 5.40234375,5.87890625 C5.45703152,5.87890625 5.51171848,5.89257799 5.56640625,5.91992188 C5.62109402,5.94726576 5.67122373,5.98828098 5.71679688,6.04296875 L9.32617188,9.625 L10.9804688,8.18945312 C11.071615,8.11653609 11.1695958,8.08463537 11.2744141,8.09375 C11.3792323,8.10286463 11.4726558,8.14387984 11.5546875,8.21679688 L14.125,10.8554688 Z M11.0625,6.34375 C10.8255196,6.34375 10.6204436,6.25944095 10.4472656,6.09082031 C10.2740877,5.92219968 10.1875,5.71484498 10.1875,5.46875 C10.1875,5.23176965 10.2740877,5.02669357 10.4472656,4.85351562 C10.6204436,4.68033768 10.8255196,4.59375 11.0625,4.59375 C11.2994804,4.59375 11.5045564,4.68033768 11.6777344,4.85351562 C11.8509123,5.02669357 11.9375,5.23176965 11.9375,5.46875 C11.9375,5.71484498 11.8509123,5.92219968 11.6777344,6.09082031 C11.5045564,6.25944095 11.2994804,6.34375 11.0625,6.34375 Z" id="" fill="#000000"></path>
    </g>
</svg>