<?xml version="1.0" encoding="UTF-8"?>
<svg width="16px" height="16px" viewBox="0 0 16 16" version="1.1" xmlns="http://www.w3.org/2000/svg" xmlns:xlink="http://www.w3.org/1999/xlink">
    <!-- Generator: Sketch 51.2 (57519) - http://www.bohemiancoding.com/sketch -->
    <title>receiving-16px</title>
    <desc>Created with Sketch.</desc>
    <defs></defs>
    <g id="receiving-16px" stroke="none" stroke-width="1" fill="none" fill-rule="evenodd">
        <path d="M14.9863281,7.84765625 C14.9954428,7.88411477 15,7.91829411 15,7.95019531 L15,12.9199219 C15,13.1569022 14.9156909,13.3619783 14.7470703,13.5351562 C14.5784497,13.7083342 14.371095,13.7949219 14.125,13.7949219 L1.875,13.7949219 C1.62890502,13.7949219 1.42155032,13.7083342 1.25292969,13.5351562 C1.08430905,13.3619783 1,13.1569022 1,12.9199219 L1,8.10742188 C1,8.06184873 1.00455725,8.01855489 1.01367188,7.97753906 C1.0227865,7.93652323 1.031901,7.89778664 1.04101562,7.86132812 C1.02278637,7.81575498 1.00911463,7.7679039 1,7.71777344 C0.990885371,7.66764298 0.995442617,7.61979189 1.01367188,7.57421875 L2.4765625,2.28320312 C2.50390639,2.19205684 2.55631472,2.11458365 2.63378906,2.05078125 C2.71126341,1.98697885 2.80012971,1.95507812 2.90039062,1.95507812 L12.9628906,1.95507812 C13.0540369,1.95507812 13.1406246,1.98470022 13.2226562,2.04394531 C13.3046879,2.1031904 13.3548176,2.18294221 13.3730469,2.28320312 L14.9863281,7.84765625 Z M3.2421875,2.83007812 L2.01171875,7.23242188 L6.1953125,7.23242188 C6.20442713,7.76107035 6.37532386,8.18945148 6.70800781,8.51757812 C7.04069177,8.84570477 7.47135152,9.00976562 8,9.00976562 C8.52864848,9.00976562 8.96158686,8.84570477 9.29882813,8.51757812 C9.63606939,8.18945148 9.80924475,7.76107035 9.81835938,7.23242188 L13.8925781,7.23242188 L12.6210938,2.83007812 L3.2421875,2.83007812 Z M14.125,12.9199219 L14.125,8.10742188 L10.5429688,8.10742188 C10.3515615,8.66341424 10.0325543,9.09863124 9.5859375,9.41308594 C9.13932068,9.72754063 8.61068014,9.88476562 8,9.88476562 C7.38931986,9.88476562 6.86295794,9.72754063 6.42089844,9.41308594 C5.97883894,9.09863124 5.66211033,8.66341424 5.47070313,8.10742188 L1.875,8.10742188 L1.875,12.9199219 L14.125,12.9199219 Z" id="drawar---simple-line-icons" fill="#000000"></path>
    </g>
</svg>