<?xml version="1.0" standalone="no"?><!DOCTYPE svg PUBLIC "-//W3C//DTD SVG 1.1//EN" "http://www.w3.org/Graphics/SVG/1.1/DTD/svg11.dtd"><svg t="1532857526033" class="icon" style="" viewBox="0 0 1024 1024" version="1.1" xmlns="http://www.w3.org/2000/svg" p-id="10909" xmlns:xlink="http://www.w3.org/1999/xlink" width="200" height="200"><defs><style type="text/css"></style></defs><path d="M778.979122 927.722015H245.241013c-7.578799 0-13.872622-5.856624-14.409138-13.421089l-49.761851-691.477882a14.490025 14.490025 0 0 1 3.824212-10.895164 14.48081 14.48081 0 0 1 10.584926-4.600317h633.261811c4.008511 0 7.847057 1.664838 10.584926 4.600317a14.48593 14.48593 0 0 1 3.824212 10.895164l-49.76185 691.477882c-0.536516 7.564465-6.831363 13.421089-14.409139 13.421089z m-520.288351-28.903259h506.83757l47.687459-662.587934H211.003312l47.687459 662.587934z" p-id="10910"></path><path d="M902.650135 236.230822H121.568976c-7.988353 0-14.452141-6.463788-14.452141-14.452141 0-7.988353 6.463788-14.452141 14.452141-14.452142h781.081159c7.988353 0 14.452141 6.463788 14.452142 14.452142 0 7.988353-6.463788 14.452141-14.452142 14.452141z" p-id="10911"></path><path d="M628.704497 236.230822H395.515638c-4.614651 0-8.947734-2.201353-11.671269-5.927272a14.436783 14.436783 0 0 1-2.088726-12.927576l35.832915-111.93012a14.457261 14.457261 0 0 1 13.759995-10.048411h161.53634c6.280513 0 11.854544 4.064825 13.759995 10.048411l35.81858 111.93012a14.436783 14.436783 0 0 1-2.088726 12.927576 14.450094 14.450094 0 0 1-11.670245 5.927272z m-213.38794-28.903259h193.587022l-26.560609-83.026861H441.8915l-26.574943 83.026861zM512.836514 737.846577c-28.310429 0-56.762155-6.929656-82.602972-21.183163-6.98597-3.867215-9.526229-12.659318-5.673349-19.645288 3.867215-6.957301 12.617339-9.526229 19.645288-5.673349 55.534516 30.681748 125.605132 20.590334 170.385781-24.471883 44.836962-45.10522 54.84237-115.712352 24.344921-171.684067-3.824212-7.013614-1.241973-15.792407 5.772666-19.603309 7.027949-3.85288 15.778073-1.227639 19.603308 5.772666 36.580351 67.120802 24.556866 151.784856-29.22783 205.894124-32.996752 33.193338-77.425184 50.594269-122.247813 50.594269zM374.615067 655.455549c-5.122498 0-10.077079-2.723535-12.701297-7.53682-36.580351-67.107492-24.570176-151.770522 29.213496-205.894124 53.84101-54.151247 138.052506-66.288384 204.863071-29.411106 6.98597 3.867215 9.526229 12.659318 5.673349 19.645288-3.85288 6.971635-12.630649 9.49756-19.645288 5.673349-55.534516-30.653079-125.605132-20.548355-170.400115 24.471883-44.822628 45.119555-54.843394 115.712352-24.330587 171.684067 3.824212 7.000304 1.241973 15.778073-5.772666 19.603309a14.37535 14.37535 0 0 1-6.899963 1.764154z" p-id="10912"></path><path d="M513.485658 472.904987c-5.546387 0-10.83885-3.203737-13.223479-8.594494-3.231382-7.296207 0.056314-15.834387 7.35252-19.066792l62.915706-27.887565-27.746269-63.352904c-3.203737-7.310541 0.126962-15.834387 7.437503-19.038124a14.418353 14.418353 0 0 1 19.038124 7.437503l33.51791 76.534404c3.189403 7.296207-0.112627 15.792407-7.381189 19.010479l-76.068537 33.71552a14.353848 14.353848 0 0 1-5.842289 1.241973zM470.751756 794.990641c-5.575056 0-10.880829-3.231382-13.252148-8.650807l-33.51791-76.534404c-3.189403-7.296207 0.112627-15.792407 7.381189-19.010479l76.068537-33.71552c7.296207-3.260051 15.834387 0.056314 19.066792 7.352521 3.231382 7.296207-0.056314 15.834387-7.35252 19.066792l-62.915706 27.887565 27.746269 63.352904c3.203737 7.310541-0.126962 15.834387-7.437503 19.038124a14.319036 14.319036 0 0 1-5.787 1.213304z" p-id="10913"></path></svg>