<?xml version="1.0" encoding="UTF-8"?>
<svg width="16px" height="16px" viewBox="0 0 16 16" version="1.1" xmlns="http://www.w3.org/2000/svg" xmlns:xlink="http://www.w3.org/1999/xlink">
    <!-- Generator: Sketch 51.2 (57519) - http://www.bohemiancoding.com/sketch -->
    <title>star-16px</title>
    <desc>Created with Sketch.</desc>
    <defs></defs>
    <g id="star-16px" stroke="none" stroke-width="1" fill="none" fill-rule="evenodd">
        <path d="M8,1.92773438 L6.40039062,5.25 L6.11328125,5.83789062 L1.84765625,6.46679688 L4.9375,9.55664062 L4.84179688,10.171875 L4.21289062,13.8632812 L8,11.8398438 L11.7871094,13.8632812 L11.1582031,10.171875 L11.0625,9.55664062 L14.1523438,6.46679688 L9.87304688,5.83789062 L8,1.92773438 Z M8,1.09375 C8.20052184,1.09375 8.38281168,1.14387971 8.546875,1.24414062 C8.71093832,1.34440154 8.83398396,1.48111893 8.91601563,1.65429688 L10.5019531,4.94921875 L14.1523438,5.48242188 C14.3346363,5.50976576 14.4986972,5.5826817 14.6445313,5.70117188 C14.7903653,5.81966205 14.895182,5.97005117 14.9589844,6.15234375 C15.0136721,6.3255217 15.020508,6.50097567 14.9794922,6.67871094 C14.9384764,6.8564462 14.8496101,7.01367119 14.7128906,7.15039062 L12.046875,9.81640625 L12.6621094,13.5214844 C12.6985679,13.703777 12.6780603,13.8815096 12.6005859,14.0546875 C12.5231116,14.2278654 12.4069018,14.3691401 12.2519531,14.4785156 C12.1608068,14.542318 12.0651047,14.5878905 11.9648438,14.6152344 C11.8645828,14.6425783 11.7643234,14.65625 11.6640625,14.65625 C11.5820308,14.65625 11.5000004,14.6471355 11.4179688,14.6289062 C11.3359371,14.610677 11.2539067,14.5787763 11.171875,14.5332031 L8,12.8242188 L4.81445313,14.5332031 C4.74153609,14.5787763 4.66406291,14.610677 4.58203125,14.6289062 C4.49999959,14.6471355 4.41796916,14.65625 4.3359375,14.65625 C4.22656195,14.65625 4.12402392,14.6425783 4.02832031,14.6152344 C3.93261671,14.5878905 3.83919316,14.542318 3.74804688,14.4785156 C3.59309818,14.3691401 3.47688841,14.2278654 3.39941406,14.0546875 C3.32193972,13.8815096 3.30143211,13.703777 3.33789062,13.5214844 L3.953125,9.81640625 L1.28710938,7.15039062 C1.15038994,7.01367119 1.06152364,6.8564462 1.02050781,6.67871094 C0.979491982,6.50097567 0.986327852,6.3255217 1.04101562,6.15234375 C1.10481803,5.9791658 1.20963469,5.8310553 1.35546875,5.70800781 C1.50130281,5.58496032 1.66536367,5.50976576 1.84765625,5.48242188 L5.49804688,4.94921875 L7.08398438,1.65429688 C7.16601604,1.48111893 7.28906168,1.34440154 7.453125,1.24414062 C7.61718832,1.14387971 7.79947816,1.09375 8,1.09375 Z" id="star---simple-line-icons" fill="#000000"></path>
    </g>
</svg>