<?xml version="1.0" encoding="UTF-8"?>
<svg width="16px" height="16px" viewBox="0 0 16 16" version="1.1" xmlns="http://www.w3.org/2000/svg" xmlns:xlink="http://www.w3.org/1999/xlink">
    <!-- Generator: Sketch 51.2 (57519) - http://www.bohemiancoding.com/sketch -->
    <title>video-16px</title>
    <desc>Created with Sketch.</desc>
    <defs></defs>
    <g id="video-16px" stroke="none" stroke-width="1" fill="none" fill-rule="evenodd">
        <path d="M11.15625,4.265625 C11.0462234,4.265625 10.9510095,4.22753944 10.8706055,4.15136719 C10.7902014,4.07519493 10.75,3.97786518 10.75,3.859375 L10.75,3.453125 C10.75,3.34309841 10.7902014,3.24788452 10.8706055,3.16748047 C10.9510095,3.08707642 11.0462234,3.046875 11.15625,3.046875 L11.96875,3.046875 C12.0787766,3.046875 12.1739905,3.08707642 12.2543945,3.16748047 C12.3347986,3.24788452 12.375,3.34309841 12.375,3.453125 L12.375,3.859375 C12.375,3.97786518 12.3347986,4.07519493 12.2543945,4.15136719 C12.1739905,4.22753944 12.0787766,4.265625 11.96875,4.265625 L11.15625,4.265625 Z M11.15625,6.703125 C11.0462234,6.703125 10.9510095,6.66503944 10.8706055,6.58886719 C10.7902014,6.51269493 10.75,6.41536518 10.75,6.296875 L10.75,5.890625 C10.75,5.78059841 10.7902014,5.68538452 10.8706055,5.60498047 C10.9510095,5.52457642 11.0462234,5.484375 11.15625,5.484375 L11.96875,5.484375 C12.0787766,5.484375 12.1739905,5.52457642 12.2543945,5.60498047 C12.3347986,5.68538452 12.375,5.78059841 12.375,5.890625 L12.375,6.296875 C12.375,6.41536518 12.3347986,6.51269493 12.2543945,6.58886719 C12.1739905,6.66503944 12.0787766,6.703125 11.96875,6.703125 L11.15625,6.703125 Z M11.15625,9.140625 C11.0462234,9.140625 10.9510095,9.10253944 10.8706055,9.02636719 C10.7902014,8.95019493 10.75,8.85286518 10.75,8.734375 L10.75,8.328125 C10.75,8.21809841 10.7902014,8.12288452 10.8706055,8.04248047 C10.9510095,7.96207642 11.0462234,7.921875 11.15625,7.921875 L11.96875,7.921875 C12.0787766,7.921875 12.1739905,7.96207642 12.2543945,8.04248047 C12.3347986,8.12288452 12.375,8.21809841 12.375,8.328125 L12.375,8.734375 C12.375,8.85286518 12.3347986,8.95019493 12.2543945,9.02636719 C12.1739905,9.10253944 12.0787766,9.140625 11.96875,9.140625 L11.15625,9.140625 Z M11.15625,11.578125 C11.0462234,11.578125 10.9510095,11.5400394 10.8706055,11.4638672 C10.7902014,11.3876949 10.75,11.2903652 10.75,11.171875 L10.75,10.765625 C10.75,10.6555984 10.7902014,10.5603845 10.8706055,10.4799805 C10.9510095,10.3995764 11.0462234,10.359375 11.15625,10.359375 L11.96875,10.359375 C12.0787766,10.359375 12.1739905,10.3995764 12.2543945,10.4799805 C12.3347986,10.5603845 12.375,10.6555984 12.375,10.765625 L12.375,11.171875 C12.375,11.2903652 12.3347986,11.3876949 12.2543945,11.4638672 C12.1739905,11.5400394 12.0787766,11.578125 11.96875,11.578125 L11.15625,11.578125 Z M3.03125,4.265625 C2.92122341,4.265625 2.82600952,4.22753944 2.74560547,4.15136719 C2.66520142,4.07519493 2.625,3.97786518 2.625,3.859375 L2.625,3.453125 C2.625,3.34309841 2.66520142,3.24788452 2.74560547,3.16748047 C2.82600952,3.08707642 2.92122341,3.046875 3.03125,3.046875 L3.84375,3.046875 C3.95377659,3.046875 4.04899048,3.08707642 4.12939453,3.16748047 C4.20979858,3.24788452 4.25,3.34309841 4.25,3.453125 L4.25,3.859375 C4.25,3.97786518 4.20979858,4.07519493 4.12939453,4.15136719 C4.04899048,4.22753944 3.95377659,4.265625 3.84375,4.265625 L3.03125,4.265625 Z M3.03125,6.703125 C2.92122341,6.703125 2.82600952,6.66503944 2.74560547,6.58886719 C2.66520142,6.51269493 2.625,6.41536518 2.625,6.296875 L2.625,5.890625 C2.625,5.78059841 2.66520142,5.68538452 2.74560547,5.60498047 C2.82600952,5.52457642 2.92122341,5.484375 3.03125,5.484375 L3.84375,5.484375 C3.95377659,5.484375 4.04899048,5.52457642 4.12939453,5.60498047 C4.20979858,5.68538452 4.25,5.78059841 4.25,5.890625 L4.25,6.296875 C4.25,6.41536518 4.20979858,6.51269493 4.12939453,6.58886719 C4.04899048,6.66503944 3.95377659,6.703125 3.84375,6.703125 L3.03125,6.703125 Z M3.03125,9.140625 C2.92122341,9.140625 2.82600952,9.10253944 2.74560547,9.02636719 C2.66520142,8.95019493 2.625,8.85286518 2.625,8.734375 L2.625,8.328125 C2.625,8.21809841 2.66520142,8.12288452 2.74560547,8.04248047 C2.82600952,7.96207642 2.92122341,7.921875 3.03125,7.921875 L3.84375,7.921875 C3.95377659,7.921875 4.04899048,7.96207642 4.12939453,8.04248047 C4.20979858,8.12288452 4.25,8.21809841 4.25,8.328125 L4.25,8.734375 C4.25,8.85286518 4.20979858,8.95019493 4.12939453,9.02636719 C4.04899048,9.10253944 3.95377659,9.140625 3.84375,9.140625 L3.03125,9.140625 Z M3.03125,11.578125 C2.92122341,11.578125 2.82600952,11.5400394 2.74560547,11.4638672 C2.66520142,11.3876949 2.625,11.2903652 2.625,11.171875 L2.625,10.765625 C2.625,10.6555984 2.66520142,10.5603845 2.74560547,10.4799805 C2.82600952,10.3995764 2.92122341,10.359375 3.03125,10.359375 L3.84375,10.359375 C3.95377659,10.359375 4.04899048,10.3995764 4.12939453,10.4799805 C4.20979858,10.5603845 4.25,10.6555984 4.25,10.765625 L4.25,11.171875 C4.25,11.2903652 4.20979858,11.3876949 4.12939453,11.4638672 C4.04899048,11.5400394 3.95377659,11.578125 3.84375,11.578125 L3.03125,11.578125 Z M13.1875,1.015625 C13.4075532,1.015625 13.597981,1.09602784 13.7587891,1.25683594 C13.9195972,1.41764403 14,1.60807182 14,1.828125 L14,12.796875 C14,13.0169282 13.9195972,13.207356 13.7587891,13.3681641 C13.597981,13.5289722 13.4075532,13.609375 13.1875,13.609375 L1.8125,13.609375 C1.59244682,13.609375 1.40201903,13.5289722 1.24121094,13.3681641 C1.08040284,13.207356 1,13.0169282 1,12.796875 L1,1.828125 C1,1.60807182 1.08040284,1.41764403 1.24121094,1.25683594 C1.40201903,1.09602784 1.59244682,1.015625 1.8125,1.015625 L13.1875,1.015625 Z M13.1875,12.796875 L13.1875,1.828125 L1.8125,1.828125 L1.8125,12.796875 L13.1875,12.796875 Z" id="" fill="#000000"></path>
    </g>
</svg>